<?xml version="1.0" encoding="UTF-8" ?>
<!DOCTYPE svg PUBLIC "-//W3C//DTD SVG 1.1//EN" "http://www.w3.org/Graphics/SVG/1.1/DTD/svg11.dtd">
<svg width="173pt" height="173pt" viewBox="0 0 173 173" version="1.1" xmlns="http://www.w3.org/2000/svg">
<g id="#ffffffff">
<path fill="#ffffff" opacity="1.00" d=" M 40.71 53.70 C 44.70 52.74 48.83 53.24 52.89 53.20 C 54.13 54.86 55.61 56.32 57.12 57.74 C 58.21 56.63 59.30 55.51 60.38 54.39 C 61.40 56.72 61.27 59.16 60.18 61.43 C 65.81 62.21 71.44 63.03 77.10 63.58 C 94.74 63.70 112.39 63.55 130.03 63.65 C 132.97 63.43 136.47 65.02 136.55 68.35 C 136.75 75.25 136.52 82.17 136.63 89.07 C 136.56 90.49 137.20 91.50 138.55 92.10 C 138.66 92.44 138.87 93.13 138.98 93.47 L 137.80 93.47 C 137.19 95.50 136.51 97.51 135.87 99.54 C 134.71 96.86 133.94 94.00 133.89 91.07 C 133.75 83.73 134.02 76.38 133.79 69.04 C 133.97 66.62 130.83 66.72 129.21 66.49 C 129.80 68.61 130.73 70.70 130.58 72.95 C 130.57 88.61 130.54 104.27 130.59 119.93 C 128.59 119.87 126.58 119.82 124.58 119.73 C 125.16 117.82 125.64 115.90 126.25 114.01 C 126.54 107.97 124.24 101.64 119.08 98.18 C 116.26 105.49 112.57 112.45 110.05 119.88 C 108.16 119.85 106.27 119.81 104.39 119.66 C 110.66 112.59 110.90 101.46 105.05 94.07 C 98.87 94.73 92.74 95.90 86.68 97.27 C 87.66 104.77 87.84 112.35 88.59 119.87 C 86.64 119.86 84.69 119.84 82.75 119.82 C 84.66 113.00 83.24 105.42 78.57 100.02 C 77.03 106.56 76.41 113.29 75.32 119.92 C 73.34 119.86 71.36 119.83 69.37 119.75 C 73.55 109.84 72.55 97.64 65.71 89.15 C 62.42 85.24 58.94 81.49 55.65 77.58 C 49.95 77.56 44.25 77.60 38.56 77.56 C 37.21 76.16 35.84 74.78 34.43 73.45 C 40.23 68.93 45.22 63.44 50.42 58.25 C 47.21 56.66 43.94 55.24 40.71 53.70 Z" />
</g>
</svg>
