<?xml version="1.0" encoding="utf-8"?>
<!-- Generator: Adobe Illustrator 16.0.0, SVG Export Plug-In . SVG Version: 6.00 Build 0)  -->
<!DOCTYPE svg PUBLIC "-//W3C//DTD SVG 1.1//EN" "http://www.w3.org/Graphics/SVG/1.1/DTD/svg11.dtd">
<svg version="1.1" id="Layer_1" xmlns="http://www.w3.org/2000/svg" xmlns:xlink="http://www.w3.org/1999/xlink" x="0px" y="0px"
	 width="100px" height="63.604px" viewBox="0 0 100 63.604" enable-background="new 0 0 100 63.604" xml:space="preserve">
<g id="Your_Icon">
	<polygon fill="#010101" points="0,19.085 14.733,4.912 6.739,0 17.888,0 21.787,3.894 24.769,0.913 26.242,2.387 26.242,5.965 
		24.908,7.298 25.437,7.824 39.08,9.614 94.441,9.614 98.48,9.614 98.48,39.186 100,40.716 96.473,44.241 96.473,12.875 
		93.217,12.875 93.217,63.604 87.531,63.604 89.006,60.554 89.006,53.293 82.268,43.607 73.43,63.604 67.745,63.604 72.59,55.079 
		72.59,47.922 67.852,39.186 50.801,42.556 52.59,63.604 46.907,63.604 47.539,56.239 42.802,45.608 39.54,63.604 33.225,63.604 
		35.959,56.555 35.435,44.135 20.172,23.295 3.336,23.295 	"/>
</g>
</svg>
